<svg xmlns="http://www.w3.org/2000/svg" xml:space="preserve" viewBox="0 0 92 92">
    <style>
        path {
            stroke:none;
            stroke-width:1;
            stroke-dasharray:none;
            stroke-linecap:butt;
            stroke-linejoin:miter;
            stroke-miterlimit:10;
            fill: var(--storyblok-job-test-header-color-items);
            fill-rule:nonzero;
            opacity:1;
        }
    </style>
    <path d="M34.268 90a5.168 5.168 0 0 1-1.975-.395l-9.845-4.079a5.125 5.125 0 0 1-2.795-2.795 5.13 5.13 0 0 1 0-3.953c1.216-2.936.075-5.558-1.399-7.032-1.474-1.475-4.094-2.615-7.033-1.399a5.128 5.128 0 0 1-3.952.001 5.125 5.125 0 0 1-2.795-2.795L.396 57.709a5.172 5.172 0 0 1 2.794-6.748C6.128 49.745 7.174 47.085 7.174 45c0-2.084-1.046-4.745-3.983-5.962a5.131 5.131 0 0 1-2.795-2.795 5.128 5.128 0 0 1 0-3.952l4.078-9.844a5.172 5.172 0 0 1 6.747-2.795c2.936 1.216 5.558.075 7.033-1.399 1.474-1.474 2.616-4.095 1.399-7.032a5.17 5.17 0 0 1 2.795-6.747L32.292.397a5.13 5.13 0 0 1 3.953 0 5.127 5.127 0 0 1 2.795 2.796c1.216 2.936 3.877 3.982 5.962 3.982s4.745-1.046 5.962-3.983A5.17 5.17 0 0 1 57.712.397l9.845 4.077a5.131 5.131 0 0 1 2.795 2.795 5.135 5.135 0 0 1-.001 3.953c-1.217 2.936-.074 5.557 1.399 7.031 1.475 1.474 4.097 2.615 7.032 1.399a5.135 5.135 0 0 1 3.953 0 5.131 5.131 0 0 1 2.796 2.796l4.077 9.843a5.17 5.17 0 0 1-2.795 6.747C83.876 40.255 82.83 42.916 82.83 45c0 2.085 1.046 4.745 3.983 5.962h.001a5.173 5.173 0 0 1 2.795 6.747l-4.079 9.845a5.134 5.134 0 0 1-2.795 2.795 5.129 5.129 0 0 1-3.954-.001c-2.934-1.217-5.557-.074-7.031 1.399-1.474 1.475-2.615 4.096-1.399 7.032a5.135 5.135 0 0 1 .001 3.953 5.135 5.135 0 0 1-2.796 2.796l-9.844 4.077a5.173 5.173 0 0 1-6.748-2.794c-1.217-2.938-3.877-3.985-5.962-3.985-2.084 0-4.746 1.047-5.962 3.984a5.136 5.136 0 0 1-2.794 2.795 5.19 5.19 0 0 1-1.978.395zm-8.777-9.707 8.349 3.459c2.105-4.294 6.31-6.926 11.161-6.926 4.852 0 9.056 2.633 11.16 6.926l8.348-3.459c-1.547-4.524-.435-9.358 2.996-12.788 3.431-3.431 8.265-4.544 12.789-2.996l3.459-8.348c-4.294-2.104-6.926-6.309-6.926-11.16 0-4.852 2.632-9.057 6.926-11.162l-3.459-8.349c-4.523 1.549-9.359.435-12.789-2.994-3.432-3.431-4.543-8.265-2.996-12.789l-8.348-3.458c-2.103 4.293-6.308 6.925-11.16 6.925s-9.057-2.632-11.162-6.925L25.49 9.707c1.548 4.524.436 9.358-2.995 12.789-3.431 3.431-8.264 4.544-12.789 2.994l-3.458 8.349c4.294 2.105 6.926 6.31 6.926 11.162 0 4.852-2.632 9.056-6.926 11.16l3.458 8.348c4.525-1.547 9.359-.435 12.789 2.995 3.432 3.431 4.544 8.265 2.996 12.789zm59.02-23.79.003.001-.003-.001zm-39.51 9.278C33.543 65.781 24.22 56.459 24.22 45s9.323-20.781 20.781-20.781S65.783 33.541 65.783 45 56.46 65.781 45.001 65.781zm0-35.563c-8.15 0-14.781 6.632-14.781 14.782 0 8.151 6.631 14.782 14.781 14.782 8.151 0 14.782-6.631 14.782-14.782 0-8.15-6.63-14.782-14.782-14.782z" />
</svg>